<svg width="100" height="28" viewBox="0 0 100 28" fill="none" xmlns="http://www.w3.org/2000/svg">
<g clip-path="url(#clip0)">
<path d="M17.8303 27.8548C16.1951 27.8548 14.7171 27.4771 13.3964 26.7217C12.0966 25.9664 11.0588 24.9382 10.2832 23.6373C9.52843 22.3154 9.14059 20.8361 9.11963 19.1994V4.3437C9.11963 3.96601 9.22445 3.67225 9.43409 3.46243C9.6647 3.23162 9.96869 3.11621 10.346 3.11621C10.7024 3.11621 10.9855 3.23162 11.1951 3.46243C11.4257 3.67225 11.541 3.96601 11.541 4.3437V13.5971C12.2328 12.6109 13.1448 11.824 14.2769 11.2365C15.4299 10.628 16.7087 10.3238 18.1133 10.3238C19.7276 10.3238 21.1741 10.7119 22.453 11.4883C23.7318 12.2437 24.7381 13.2823 25.4718 14.6042C26.2265 15.9261 26.6039 17.4159 26.6039 19.0735C26.6039 20.7522 26.2161 22.2524 25.4404 23.5743C24.6857 24.8962 23.6479 25.9454 22.3272 26.7217C21.0064 27.4771 19.5075 27.8548 17.8303 27.8548ZM17.8303 25.6516C19.0463 25.6516 20.1364 25.3683 21.1008 24.8018C22.0651 24.2143 22.8198 23.4274 23.3649 22.4413C23.931 21.4551 24.214 20.3325 24.214 19.0735C24.214 17.8356 23.931 16.7235 23.3649 15.7373C22.8198 14.7301 22.0651 13.9433 21.1008 13.3767C20.1364 12.8102 19.0463 12.5269 17.8303 12.5269C16.6354 12.5269 15.5557 12.8102 14.5913 13.3767C13.627 13.9433 12.8722 14.7301 12.3272 15.7373C11.7821 16.7235 11.5096 17.8356 11.5096 19.0735C11.5096 20.3325 11.7821 21.4551 12.3272 22.4413C12.8722 23.4274 13.627 24.2143 14.5913 24.8018C15.5557 25.3683 16.6354 25.6516 17.8303 25.6516ZM39.1521 27.8548C37.454 27.8548 35.9446 27.4876 34.6238 26.7532C33.324 25.9978 32.2968 24.9592 31.5421 23.6373C30.8083 22.3154 30.4414 20.8046 30.4414 19.105C30.4414 17.3844 30.7873 15.8737 31.4792 14.5728C32.192 13.2508 33.1668 12.2122 34.4037 11.4568C35.6406 10.7015 37.0662 10.3238 38.6804 10.3238C40.2737 10.3238 41.6574 10.691 42.8314 11.4254C44.0263 12.1388 44.9488 13.1354 45.5987 14.4154C46.2486 15.6953 46.5735 17.1536 46.5735 18.7903C46.5735 19.126 46.4687 19.3988 46.259 19.6086C46.0494 19.7974 45.7769 19.8919 45.4414 19.8919H32.0767V17.8775H45.693L44.3408 18.8532C44.3618 17.6362 44.1416 16.5451 43.6804 15.5799C43.2192 14.6147 42.5588 13.8593 41.6993 13.3138C40.8607 12.7682 39.8544 12.4955 38.6804 12.4955C37.4855 12.4955 36.4372 12.7787 35.5358 13.3453C34.6343 13.9118 33.932 14.6987 33.4289 15.7058C32.9467 16.692 32.7056 17.8251 32.7056 19.105C32.7056 20.385 32.9781 21.518 33.5232 22.5042C34.0892 23.4904 34.8544 24.2668 35.8188 24.8333C36.7832 25.3998 37.8943 25.6831 39.1521 25.6831C39.9068 25.6831 40.6616 25.5572 41.4163 25.3054C42.192 25.0326 42.8104 24.6969 43.2716 24.2982C43.5022 24.1094 43.7643 24.015 44.0578 24.015C44.3513 23.994 44.6029 24.0674 44.8125 24.2353C45.085 24.4871 45.2213 24.7598 45.2213 25.0536C45.2423 25.3474 45.127 25.5992 44.8754 25.809C44.1836 26.3965 43.3031 26.8896 42.2339 27.2883C41.1647 27.666 40.1375 27.8548 39.1521 27.8548ZM57.6341 27.8548C56.0198 27.8548 54.5733 27.4771 53.2945 26.7217C52.0156 25.9454 50.9989 24.8962 50.2442 23.5743C49.5104 22.2524 49.1435 20.7626 49.1435 19.105C49.1435 17.4264 49.5209 15.9261 50.2756 14.6042C51.0513 13.2823 52.0995 12.2437 53.4203 11.4883C54.741 10.7119 56.2295 10.3238 57.8857 10.3238C59.5419 10.3238 61.0198 10.7119 62.3196 11.4883C63.6404 12.2437 64.6781 13.2823 65.4328 14.6042C66.2085 15.9261 66.6068 17.4264 66.6278 19.105L65.653 19.8604C65.653 21.3711 65.2966 22.735 64.5838 23.952C63.892 25.148 62.9381 26.1027 61.7221 26.8162C60.5272 27.5086 59.1645 27.8548 57.6341 27.8548ZM57.8857 25.6516C59.1016 25.6516 60.1813 25.3683 61.1247 24.8018C62.089 24.2353 62.8437 23.4589 63.3888 22.4727C63.9549 21.4656 64.2379 20.343 64.2379 19.105C64.2379 17.8461 63.9549 16.7235 63.3888 15.7373C62.8437 14.7511 62.089 13.9748 61.1247 13.4082C60.1813 12.8207 59.1016 12.5269 57.8857 12.5269C56.6907 12.5269 55.611 12.8207 54.6467 13.4082C53.6823 13.9748 52.9171 14.7511 52.3511 15.7373C51.785 16.7235 51.502 17.8461 51.502 19.105C51.502 20.343 51.785 21.4656 52.3511 22.4727C52.9171 23.4589 53.6823 24.2353 54.6467 24.8018C55.611 25.3683 56.6907 25.6516 57.8857 25.6516ZM65.4014 27.6974C65.045 27.6974 64.7515 27.5925 64.5209 27.3827C64.2903 27.1519 64.175 26.8581 64.175 26.5014V21.1194L64.7725 18.6329L66.6278 19.105V26.5014C66.6278 26.8581 66.5125 27.1519 66.2819 27.3827C66.0513 27.5925 65.7578 27.6974 65.4014 27.6974ZM94.576 27.6974C94.2196 27.6974 93.9261 27.5925 93.6955 27.3827C93.4649 27.1519 93.3496 26.8581 93.3496 26.5014V17.4369C93.3496 15.9471 92.9618 14.7721 92.1861 13.9118C91.4104 13.0305 90.4146 12.5899 89.1987 12.5899C87.8989 12.5899 86.8297 13.0305 85.9911 13.9118C85.1735 14.7721 84.7752 15.9261 84.7962 17.3739H82.6263C82.6473 15.9681 82.9513 14.7301 83.5383 13.66C84.1253 12.5899 84.9324 11.7611 85.9597 11.1736C86.9869 10.586 88.1505 10.2923 89.4502 10.2923C90.6871 10.2923 91.7773 10.586 92.7207 11.1736C93.685 11.7611 94.4293 12.5899 94.9534 13.66C95.4985 14.7301 95.771 15.9891 95.771 17.4369V26.5014C95.771 26.8581 95.6557 27.1519 95.4251 27.3827C95.2154 27.5925 94.9324 27.6974 94.576 27.6974ZM72.5634 27.6974C72.1861 27.6974 71.8821 27.5925 71.6515 27.3827C71.4419 27.1519 71.337 26.8581 71.337 26.5014V11.7086C71.337 11.3519 71.4419 11.0582 71.6515 10.8273C71.8821 10.5965 72.1861 10.4811 72.5634 10.4811C72.9198 10.4811 73.2029 10.5965 73.4125 10.8273C73.6431 11.0582 73.7584 11.3519 73.7584 11.7086V26.5014C73.7584 26.8581 73.6431 27.1519 73.4125 27.3827C73.2029 27.5925 72.9198 27.6974 72.5634 27.6974ZM83.6012 27.6974C83.2448 27.6974 82.9513 27.5925 82.7207 27.3827C82.4901 27.1519 82.3748 26.8581 82.3748 26.5014V17.4369C82.3748 15.9471 81.9869 14.7721 81.2113 13.9118C80.4356 13.0305 79.4398 12.5899 78.2238 12.5899C76.924 12.5899 75.8549 13.02 75.0163 13.8803C74.1777 14.7196 73.7584 15.8212 73.7584 17.1851H72.0289C72.0708 15.8422 72.3643 14.6567 72.9094 13.6285C73.4754 12.5794 74.2406 11.7611 75.205 11.1736C76.1693 10.586 77.2595 10.2923 78.4754 10.2923C79.7123 10.2923 80.8024 10.586 81.7458 11.1736C82.7102 11.7611 83.4544 12.5899 83.9785 13.66C84.5236 14.7301 84.7962 15.9891 84.7962 17.4369V26.5014C84.7962 26.8581 84.6808 27.1519 84.4502 27.3827C84.2406 27.5925 83.9576 27.6974 83.6012 27.6974Z" fill="#9175DB"/>
<path d="M3.14465 27.6972C4.8814 27.6972 6.28931 26.288 6.28931 24.5497C6.28931 22.8115 4.8814 21.4023 3.14465 21.4023C1.40791 21.4023 0 22.8115 0 24.5497C0 26.288 1.40791 27.6972 3.14465 27.6972Z" fill="#9175DB"/>
</g>
<defs>
<clipPath id="clip0">
<rect width="100" height="27.907" fill="white"/>
</clipPath>
</defs>
</svg>
